<svg width="207" height="160" viewBox="0 0 207 160" fill="none" xmlns="http://www.w3.org/2000/svg">
<g filter="url(#filter0_ddi_642_2159)">
<path d="M155.756 107.115L99.7908 74.8147L43.9998 107.115L99.7908 139.242L155.756 107.115Z" fill="white"/>
<path d="M155.756 107.115L99.7908 74.8147L43.9998 107.115L99.7908 139.242L155.756 107.115Z" fill="url(#paint0_linear_642_2159)"/>
<path d="M155.756 107.115L99.7908 74.8147L43.9998 107.115L99.7908 139.242L155.756 107.115Z" fill="url(#paint1_linear_642_2159)"/>
<path d="M155.756 107.115L99.7908 74.8147L43.9998 107.115L99.7908 139.242L155.756 107.115Z" fill="url(#paint2_linear_642_2159)"/>
<path d="M155.756 107.115L99.7908 74.8147L43.9998 107.115L99.7908 139.242L155.756 107.115Z" fill="url(#paint3_linear_642_2159)"/>
<path d="M155.756 107.115L99.7908 74.8147L43.9998 107.115L99.7908 139.242L155.756 107.115Z" fill="url(#paint4_radial_642_2159)" style="mix-blend-mode:luminosity"/>
<path d="M44.7998 107.114L99.7911 75.2767L154.954 107.114L99.7911 138.781L44.7998 107.114Z" stroke="url(#paint5_linear_642_2159)" stroke-width="0.8" stroke-linecap="round"/>
</g>
<g filter="url(#filter1_if_642_2159)">
<rect x="79.673" y="71.4543" width="39.2865" height="39.2865" rx="19.6433" fill="url(#paint6_radial_642_2159)"/>
<rect x="79.673" y="71.4543" width="39.2865" height="39.2865" rx="19.6433" fill="url(#paint7_radial_642_2159)"/>
<rect x="79.673" y="71.4543" width="39.2865" height="39.2865" rx="19.6433" fill="white"/>
<rect x="79.673" y="71.4543" width="39.2865" height="39.2865" rx="19.6433" fill="url(#paint8_linear_642_2159)"/>
<rect x="79.673" y="71.4543" width="39.2865" height="39.2865" rx="19.6433" fill="url(#paint9_linear_642_2159)"/>
<rect x="79.673" y="71.4543" width="39.2865" height="39.2865" rx="19.6433" fill="url(#paint10_linear_642_2159)"/>
<rect x="79.673" y="71.4543" width="39.2865" height="39.2865" rx="19.6433" fill="url(#paint11_linear_642_2159)"/>
<rect x="79.2226" y="71.004" width="40.1873" height="40.1873" rx="20.0936" stroke="url(#paint12_linear_642_2159)" stroke-width="0.900741"/>
</g>
<mask id="path-5-outside-1_642_2159" maskUnits="userSpaceOnUse" x="68.4359" y="53.9119" width="62" height="70" fill="black">
<rect fill="white" x="68.4359" y="53.9119" width="62" height="70"/>
<path fill-rule="evenodd" clip-rule="evenodd" d="M128.162 72.4708C128.582 72.2294 128.583 71.623 128.163 71.3806L99.7742 54.9961C99.5793 54.8836 99.3393 54.8838 99.1447 54.9965L70.8442 71.3811C70.4253 71.6236 70.426 72.2288 70.8455 72.4704L99.1459 88.7673C99.3399 88.879 99.5787 88.8792 99.7729 88.7677L128.162 72.4708ZM98.1504 123.069C98.5697 123.311 99.0937 123.008 99.0937 122.524V89.8475C99.0937 89.6227 98.9738 89.4151 98.7791 89.3028L70.3793 72.9115C69.96 72.6695 69.4359 72.9721 69.4359 73.4562V106.133C69.4359 106.358 69.5559 106.565 69.7505 106.678L98.1504 123.069ZM99.7938 122.524C99.7938 123.008 100.318 123.311 100.737 123.069L129.137 106.677C129.332 106.565 129.452 106.357 129.452 106.133V73.4561C129.452 72.972 128.928 72.6694 128.508 72.9114L100.108 89.3027C99.9137 89.415 99.7938 89.6227 99.7938 89.8474V122.524Z"/>
</mask>
<path fill-rule="evenodd" clip-rule="evenodd" d="M128.162 72.4708C128.582 72.2294 128.583 71.623 128.163 71.3806L99.7742 54.9961C99.5793 54.8836 99.3393 54.8838 99.1447 54.9965L70.8442 71.3811C70.4253 71.6236 70.426 72.2288 70.8455 72.4704L99.1459 88.7673C99.3399 88.879 99.5787 88.8792 99.7729 88.7677L128.162 72.4708ZM98.1504 123.069C98.5697 123.311 99.0937 123.008 99.0937 122.524V89.8475C99.0937 89.6227 98.9738 89.4151 98.7791 89.3028L70.3793 72.9115C69.96 72.6695 69.4359 72.9721 69.4359 73.4562V106.133C69.4359 106.358 69.5559 106.565 69.7505 106.678L98.1504 123.069ZM99.7938 122.524C99.7938 123.008 100.318 123.311 100.737 123.069L129.137 106.677C129.332 106.565 129.452 106.357 129.452 106.133V73.4561C129.452 72.972 128.928 72.6694 128.508 72.9114L100.108 89.3027C99.9137 89.415 99.7938 89.6227 99.7938 89.8474V122.524Z" fill="white" fill-opacity="0.43" style="mix-blend-mode:soft-light"/>
<path d="M128.163 71.3806L127.923 71.7964L128.163 71.3806ZM128.162 72.4708L127.923 72.0545V72.0545L128.162 72.4708ZM99.7742 54.9961L100.014 54.5804V54.5804L99.7742 54.9961ZM99.1447 54.9965L99.3851 55.4119V55.4119L99.1447 54.9965ZM70.8442 71.3811L70.6037 70.9656H70.6037L70.8442 71.3811ZM70.8455 72.4704L71.085 72.0544L71.085 72.0544L70.8455 72.4704ZM99.1459 88.7673L99.3855 88.3513H99.3854L99.1459 88.7673ZM99.7729 88.7677L99.5339 88.3514H99.5339L99.7729 88.7677ZM98.1504 123.069L98.3903 122.653L98.3903 122.653L98.1504 123.069ZM98.7791 89.3028L98.5392 89.7185L98.5392 89.7185L98.7791 89.3028ZM70.3793 72.9115L70.1393 73.3272L70.1393 73.3272L70.3793 72.9115ZM69.7505 106.678L69.9904 106.262L69.9904 106.262L69.7505 106.678ZM100.737 123.069L100.497 122.653L100.497 122.653L100.737 123.069ZM129.137 106.677L129.377 107.093H129.377L129.137 106.677ZM128.508 72.9114L128.748 73.3271V73.3271L128.508 72.9114ZM100.108 89.3027L99.8684 88.8869H99.8684L100.108 89.3027ZM127.923 71.7964C128.022 71.8538 128.022 71.9974 127.923 72.0545L128.401 72.8871C129.142 72.4614 129.143 71.3923 128.403 70.9649L127.923 71.7964ZM99.5342 55.4118L127.923 71.7964L128.403 70.9649L100.014 54.5804L99.5342 55.4118ZM99.3851 55.4119C99.4312 55.3852 99.4881 55.3852 99.5342 55.4118L100.014 54.5804C99.6706 54.3821 99.2474 54.3824 98.9042 54.5811L99.3851 55.4119ZM71.0847 71.7965L99.3851 55.4119L98.9042 54.5811L70.6037 70.9656L71.0847 71.7965ZM71.085 72.0544C70.9857 71.9972 70.9855 71.8539 71.0847 71.7965L70.6037 70.9656C69.865 71.3933 69.8662 72.4604 70.606 72.8863L71.085 72.0544ZM99.3854 88.3513L71.085 72.0544L70.606 72.8863L98.9064 89.1832L99.3854 88.3513ZM99.5339 88.3514C99.4879 88.3778 99.4314 88.3778 99.3855 88.3513L98.9064 89.1832C99.2485 89.3802 99.6695 89.3805 100.012 89.184L99.5339 88.3514ZM127.923 72.0545L99.5339 88.3514L100.012 89.184L128.401 72.8871L127.923 72.0545ZM98.6137 122.524C98.6137 122.639 98.4896 122.71 98.3903 122.653L97.9104 123.485C98.6497 123.911 99.5737 123.378 99.5737 122.524H98.6137ZM98.6137 89.8475V122.524H99.5737V89.8475H98.6137ZM98.5392 89.7185C98.5853 89.7451 98.6137 89.7943 98.6137 89.8475H99.5737C99.5737 89.4512 99.3623 89.0851 99.0191 88.887L98.5392 89.7185ZM70.1393 73.3272L98.5392 89.7185L99.0191 88.887L70.6192 72.4958L70.1393 73.3272ZM69.9159 73.4562C69.9159 73.3416 70.04 73.2699 70.1393 73.3272L70.6192 72.4958C69.8799 72.0691 68.9559 72.6026 68.9559 73.4562H69.9159ZM69.9159 106.133V73.4562H68.9559V106.133H69.9159ZM69.9904 106.262C69.9443 106.235 69.9159 106.186 69.9159 106.133H68.9559C68.9559 106.529 69.1674 106.895 69.5106 107.093L69.9904 106.262ZM98.3903 122.653L69.9904 106.262L69.5105 107.093L97.9104 123.485L98.3903 122.653ZM100.497 122.653C100.398 122.71 100.274 122.639 100.274 122.524H99.3138C99.3138 123.378 100.238 123.911 100.977 123.484L100.497 122.653ZM128.897 106.262L100.497 122.653L100.977 123.484L129.377 107.093L128.897 106.262ZM128.972 106.133C128.972 106.186 128.943 106.235 128.897 106.262L129.377 107.093C129.72 106.895 129.932 106.529 129.932 106.133H128.972ZM128.972 73.4561V106.133H129.932V73.4561H128.972ZM128.748 73.3271C128.847 73.2698 128.972 73.3415 128.972 73.4561H129.932C129.932 72.6025 129.008 72.069 128.268 72.4957L128.748 73.3271ZM100.348 89.7184L128.748 73.3271L128.268 72.4957L99.8684 88.8869L100.348 89.7184ZM100.274 89.8474C100.274 89.7942 100.302 89.745 100.348 89.7184L99.8684 88.8869C99.5252 89.085 99.3138 89.4511 99.3138 89.8474H100.274ZM100.274 122.524V89.8474H99.3138V122.524H100.274Z" fill="url(#paint13_radial_642_2159)" mask="url(#path-5-outside-1_642_2159)"/>
<g filter="url(#filter2_bii_642_2159)">
<path fill-rule="evenodd" clip-rule="evenodd" d="M84.869 29.2895C85.0915 29.1618 85.0919 28.841 84.8697 28.7127L69.8507 20.0446C69.7477 19.9851 69.6207 19.9852 69.5177 20.0448L54.5454 28.713C54.3238 28.8413 54.3242 29.1615 54.5461 29.2893L69.5184 37.9111C69.621 37.9702 69.7473 37.9703 69.8501 37.9113L84.869 29.2895ZM68.9911 56.0582C69.2129 56.1863 69.4902 56.0262 69.4902 55.77V38.4826C69.4902 38.3637 69.4267 38.2539 69.3238 38.1944L54.2989 29.5227C54.0771 29.3947 53.7999 29.5547 53.7999 29.8109V47.0983C53.7999 47.2172 53.8633 47.3271 53.9663 47.3865L68.9911 56.0582ZM69.8612 55.7699C69.8612 56.0261 70.1384 56.1862 70.3602 56.0581L85.3851 47.3864C85.4881 47.327 85.5515 47.2171 85.5515 47.0982V29.8108C85.5515 29.5546 85.2743 29.3946 85.0524 29.5226L70.0276 38.1943C69.9246 38.2538 69.8612 38.3636 69.8612 38.4825V55.7699Z" fill="url(#paint14_radial_642_2159)"/>
</g>
<g filter="url(#filter3_bii_642_2159)">
<path fill-rule="evenodd" clip-rule="evenodd" d="M162.663 108.919C162.885 108.791 162.885 108.47 162.663 108.342L147.644 99.6737C147.541 99.6142 147.414 99.6143 147.311 99.6739L132.339 108.342C132.117 108.47 132.118 108.791 132.34 108.918L147.312 117.54C147.415 117.599 147.541 117.599 147.644 117.54L162.663 108.919ZM146.785 135.687C147.007 135.815 147.284 135.655 147.284 135.399V118.112C147.284 117.993 147.221 117.883 147.118 117.824L132.093 109.152C131.871 109.024 131.594 109.184 131.594 109.44V126.727C131.594 126.846 131.657 126.956 131.76 127.016L146.785 135.687ZM147.655 135.399C147.655 135.655 147.932 135.815 148.154 135.687L163.179 127.016C163.282 126.956 163.345 126.846 163.345 126.727V109.44C163.345 109.184 163.068 109.024 162.846 109.152L147.821 117.823C147.718 117.883 147.655 117.993 147.655 118.112V135.399Z" fill="url(#paint15_radial_642_2159)"/>
</g>
<defs>
<filter id="filter0_ddi_642_2159" x="30.3198" y="69.1347" width="141.676" height="82.3477" filterUnits="userSpaceOnUse" color-interpolation-filters="sRGB">
<feFlood flood-opacity="0" result="BackgroundImageFix"/>
<feColorMatrix in="SourceAlpha" type="matrix" values="0 0 0 0 0 0 0 0 0 0 0 0 0 0 0 0 0 0 127 0" result="hardAlpha"/>
<feOffset dx="11.2" dy="7.2"/>
<feGaussianBlur stdDeviation="2.52"/>
<feComposite in2="hardAlpha" operator="out"/>
<feColorMatrix type="matrix" values="0 0 0 0 0 0 0 0 0 0 0 0 0 0 0 0 0 0 0.8 0"/>
<feBlend mode="normal" in2="BackgroundImageFix" result="effect1_dropShadow_642_2159"/>
<feColorMatrix in="SourceAlpha" type="matrix" values="0 0 0 0 0 0 0 0 0 0 0 0 0 0 0 0 0 0 127 0" result="hardAlpha"/>
<feOffset dx="-6.4" dy="1.6"/>
<feGaussianBlur stdDeviation="3.64"/>
<feComposite in2="hardAlpha" operator="out"/>
<feColorMatrix type="matrix" values="0 0 0 0 0.670588 0 0 0 0 0 0 0 0 0 1 0 0 0 0.14 0"/>
<feBlend mode="normal" in2="effect1_dropShadow_642_2159" result="effect2_dropShadow_642_2159"/>
<feBlend mode="normal" in="SourceGraphic" in2="effect2_dropShadow_642_2159" result="shape"/>
<feColorMatrix in="SourceAlpha" type="matrix" values="0 0 0 0 0 0 0 0 0 0 0 0 0 0 0 0 0 0 127 0" result="hardAlpha"/>
<feOffset dy="1.6"/>
<feGaussianBlur stdDeviation="3.12"/>
<feComposite in2="hardAlpha" operator="arithmetic" k2="-1" k3="1"/>
<feColorMatrix type="matrix" values="0 0 0 0 0 0 0 0 0 0 0 0 0 0 0 0 0 0 0.8 0"/>
<feBlend mode="normal" in2="shape" result="effect3_innerShadow_642_2159"/>
</filter>
<filter id="filter1_if_642_2159" x="73.0923" y="64.8737" width="52.448" height="52.4479" filterUnits="userSpaceOnUse" color-interpolation-filters="sRGB">
<feFlood flood-opacity="0" result="BackgroundImageFix"/>
<feBlend mode="normal" in="SourceGraphic" in2="BackgroundImageFix" result="shape"/>
<feColorMatrix in="SourceAlpha" type="matrix" values="0 0 0 0 0 0 0 0 0 0 0 0 0 0 0 0 0 0 127 0" result="hardAlpha"/>
<feMorphology radius="1.6" operator="erode" in="SourceAlpha" result="effect1_innerShadow_642_2159"/>
<feOffset dy="3.2"/>
<feGaussianBlur stdDeviation="4.04"/>
<feComposite in2="hardAlpha" operator="arithmetic" k2="-1" k3="1"/>
<feColorMatrix type="matrix" values="0 0 0 0 1 0 0 0 0 1 0 0 0 0 1 0 0 0 0.5 0"/>
<feBlend mode="normal" in2="shape" result="effect1_innerShadow_642_2159"/>
<feGaussianBlur stdDeviation="2.84" result="effect2_foregroundBlur_642_2159"/>
</filter>
<filter id="filter2_bii_642_2159" x="52.1069" y="18.3071" width="35.1376" height="41.1821" filterUnits="userSpaceOnUse" color-interpolation-filters="sRGB">
<feFlood flood-opacity="0" result="BackgroundImageFix"/>
<feGaussianBlur in="BackgroundImageFix" stdDeviation="0.846475"/>
<feComposite in2="SourceAlpha" operator="in" result="effect1_backgroundBlur_642_2159"/>
<feBlend mode="normal" in="SourceGraphic" in2="effect1_backgroundBlur_642_2159" result="shape"/>
<feColorMatrix in="SourceAlpha" type="matrix" values="0 0 0 0 0 0 0 0 0 0 0 0 0 0 0 0 0 0 127 0" result="hardAlpha"/>
<feOffset/>
<feGaussianBlur stdDeviation="3.44"/>
<feComposite in2="hardAlpha" operator="arithmetic" k2="-1" k3="1"/>
<feColorMatrix type="matrix" values="0 0 0 0 1 0 0 0 0 1 0 0 0 0 1 0 0 0 0.28 0"/>
<feBlend mode="normal" in2="shape" result="effect2_innerShadow_642_2159"/>
<feColorMatrix in="SourceAlpha" type="matrix" values="0 0 0 0 0 0 0 0 0 0 0 0 0 0 0 0 0 0 127 0" result="hardAlpha"/>
<feOffset dy="3.3859"/>
<feGaussianBlur stdDeviation="3.99959"/>
<feComposite in2="hardAlpha" operator="arithmetic" k2="-1" k3="1"/>
<feColorMatrix type="matrix" values="0 0 0 0 0 0 0 0 0 0 0 0 0 0 0 0 0 0 0.5 0"/>
<feBlend mode="normal" in2="effect2_innerShadow_642_2159" result="effect3_innerShadow_642_2159"/>
</filter>
<filter id="filter3_bii_642_2159" x="129.901" y="97.9362" width="35.1376" height="41.1821" filterUnits="userSpaceOnUse" color-interpolation-filters="sRGB">
<feFlood flood-opacity="0" result="BackgroundImageFix"/>
<feGaussianBlur in="BackgroundImageFix" stdDeviation="0.846475"/>
<feComposite in2="SourceAlpha" operator="in" result="effect1_backgroundBlur_642_2159"/>
<feBlend mode="normal" in="SourceGraphic" in2="effect1_backgroundBlur_642_2159" result="shape"/>
<feColorMatrix in="SourceAlpha" type="matrix" values="0 0 0 0 0 0 0 0 0 0 0 0 0 0 0 0 0 0 127 0" result="hardAlpha"/>
<feOffset/>
<feGaussianBlur stdDeviation="3.44"/>
<feComposite in2="hardAlpha" operator="arithmetic" k2="-1" k3="1"/>
<feColorMatrix type="matrix" values="0 0 0 0 1 0 0 0 0 1 0 0 0 0 1 0 0 0 0.28 0"/>
<feBlend mode="normal" in2="shape" result="effect2_innerShadow_642_2159"/>
<feColorMatrix in="SourceAlpha" type="matrix" values="0 0 0 0 0 0 0 0 0 0 0 0 0 0 0 0 0 0 127 0" result="hardAlpha"/>
<feOffset dy="3.3859"/>
<feGaussianBlur stdDeviation="3.99959"/>
<feComposite in2="hardAlpha" operator="arithmetic" k2="-1" k3="1"/>
<feColorMatrix type="matrix" values="0 0 0 0 0 0 0 0 0 0 0 0 0 0 0 0 0 0 0.5 0"/>
<feBlend mode="normal" in2="effect2_innerShadow_642_2159" result="effect3_innerShadow_642_2159"/>
</filter>
<linearGradient id="paint0_linear_642_2159" x1="131.221" y1="135.136" x2="130.821" y2="96.4978" gradientUnits="userSpaceOnUse">
<stop stop-color="#AB00FF"/>
<stop offset="1" stop-color="#AB00FF" stop-opacity="0.05"/>
</linearGradient>
<linearGradient id="paint1_linear_642_2159" x1="42.3853" y1="127.085" x2="61.8296" y2="83.5776" gradientUnits="userSpaceOnUse">
<stop stop-color="#1C83AB"/>
<stop offset="1" stop-color="#29C1FC" stop-opacity="0.16"/>
</linearGradient>
<linearGradient id="paint2_linear_642_2159" x1="131.034" y1="71.7627" x2="124.472" y2="117.23" gradientUnits="userSpaceOnUse">
<stop stop-color="#D86292"/>
<stop offset="1" stop-color="#D86292" stop-opacity="0"/>
</linearGradient>
<linearGradient id="paint3_linear_642_2159" x1="48.1023" y1="74.6096" x2="63.5673" y2="121.114" gradientUnits="userSpaceOnUse">
<stop stop-color="#FBB03B"/>
<stop offset="1" stop-color="#07060C" stop-opacity="0"/>
</linearGradient>
<radialGradient id="paint4_radial_642_2159" cx="0" cy="0" r="1" gradientUnits="userSpaceOnUse" gradientTransform="translate(99.6745 107.621) rotate(92.5638) scale(35.0837 60.8544)">
<stop stop-color="#09445A"/>
<stop offset="1" stop-color="#07060C"/>
</radialGradient>
<linearGradient id="paint5_linear_642_2159" x1="164.51" y1="124.386" x2="106.478" y2="200.234" gradientUnits="userSpaceOnUse">
<stop stop-color="white" stop-opacity="0.12"/>
<stop offset="0.346053" stop-color="white" stop-opacity="0.2"/>
<stop offset="0.700226" stop-color="white" stop-opacity="0.03"/>
<stop offset="1" stop-color="white" stop-opacity="0.14"/>
</linearGradient>
<radialGradient id="paint6_radial_642_2159" cx="0" cy="0" r="1" gradientUnits="userSpaceOnUse" gradientTransform="translate(99.2448 91.459) rotate(89.7876) scale(19.282 19.282)">
<stop stop-color="#AB00FF"/>
<stop offset="1" stop-color="#07060C" stop-opacity="0"/>
</radialGradient>
<radialGradient id="paint7_radial_642_2159" cx="0" cy="0" r="1" gradientUnits="userSpaceOnUse" gradientTransform="translate(95.9163 95.7185) rotate(78.1579) scale(14.5613 14.5614)">
<stop stop-color="#A33B65"/>
<stop offset="1" stop-color="#07060C" stop-opacity="0"/>
</radialGradient>
<linearGradient id="paint8_linear_642_2159" x1="110.335" y1="108.237" x2="109.912" y2="84.6813" gradientUnits="userSpaceOnUse">
<stop stop-color="#AB00FF"/>
<stop offset="1" stop-color="#AB00FF" stop-opacity="0.05"/>
</linearGradient>
<linearGradient id="paint9_linear_642_2159" x1="79.1054" y1="103.328" x2="94.5177" y2="83.4467" gradientUnits="userSpaceOnUse">
<stop stop-color="#1C83AB"/>
<stop offset="1" stop-color="#29C1FC" stop-opacity="0.16"/>
</linearGradient>
<linearGradient id="paint10_linear_642_2159" x1="110.269" y1="69.5933" x2="103.601" y2="96.2262" gradientUnits="userSpaceOnUse">
<stop stop-color="#D86292"/>
<stop offset="1" stop-color="#D86292" stop-opacity="0"/>
</linearGradient>
<linearGradient id="paint11_linear_642_2159" x1="81.1152" y1="71.3293" x2="94.7461" y2="94.9597" gradientUnits="userSpaceOnUse">
<stop stop-color="#FBB03B"/>
<stop offset="1" stop-color="#07060C" stop-opacity="0"/>
</linearGradient>
<linearGradient id="paint12_linear_642_2159" x1="122.037" y1="101.682" x2="86.7954" y2="128.236" gradientUnits="userSpaceOnUse">
<stop stop-color="white" stop-opacity="0.12"/>
<stop offset="0.346053" stop-color="white" stop-opacity="0.2"/>
<stop offset="0.700226" stop-color="white" stop-opacity="0.03"/>
<stop offset="1" stop-color="white" stop-opacity="0.14"/>
</linearGradient>
<radialGradient id="paint13_radial_642_2159" cx="0" cy="0" r="1" gradientUnits="userSpaceOnUse" gradientTransform="translate(82.5486 71.9358) rotate(44.9999) scale(75.5068 66.4043)">
<stop stop-color="white" stop-opacity="0.55"/>
<stop offset="1" stop-color="#29C1FC" stop-opacity="0"/>
</radialGradient>
<radialGradient id="paint14_radial_642_2159" cx="0" cy="0" r="1" gradientUnits="userSpaceOnUse" gradientTransform="translate(69.6179 38.3838) rotate(89.8132) scale(17.7196 15.5838)">
<stop stop-color="#5D3C0A"/>
<stop offset="1" stop-color="#07060C"/>
</radialGradient>
<radialGradient id="paint15_radial_642_2159" cx="0" cy="0" r="1" gradientUnits="userSpaceOnUse" gradientTransform="translate(147.412 118.013) rotate(89.8132) scale(17.7196 15.5838)">
<stop stop-color="#590E2C"/>
<stop offset="1" stop-color="#07060C"/>
</radialGradient>
</defs>
</svg>
