<svg width="84" height="84" viewBox="0 0 84 84" fill="none" xmlns="http://www.w3.org/2000/svg">
<rect width="84" height="84" rx="42" fill="#0E1116"/>
<path d="M44.2396 31.1989L32.8929 19.7965C31.3994 18.296 28.9744 18.289 27.4739 19.7826C26.1546 21.0949 25.992 23.1297 26.9861 24.6209C27.1092 24.8067 27.0883 25.0506 26.9304 25.2085L15.8508 36.2904C12.4944 39.6468 12.4944 45.0891 15.8508 48.4455L27.6551 60.2498C28.3357 60.9303 29.2276 61.2695 30.1195 61.2695C31.0115 61.2695 31.9034 60.9303 32.584 60.2498C33.9451 58.8886 33.9451 56.682 32.584 55.3232L22.257 44.9962C20.8053 43.5444 20.8053 41.1915 22.257 39.7398L31.7873 30.2094C31.9685 30.0283 32.2634 30.0283 32.4446 30.2094L38.8764 36.6737C39.6243 37.4263 40.6091 37.8026 41.594 37.8026C42.5788 37.8026 43.573 37.4216 44.3256 36.6598C45.8121 35.1523 45.7355 32.6995 44.242 31.1989H44.2396ZM40.3745 52.803L51.7189 64.2054C53.2125 65.7059 55.6374 65.7129 57.1379 64.2194C58.4573 62.907 58.6199 60.8723 57.6257 59.3811C57.5026 59.1952 57.5235 58.9513 57.6815 58.7934L68.7634 47.7115C72.1198 44.3551 72.1198 38.9128 68.7634 35.5565L56.9591 23.7522C56.2785 23.0716 55.3866 22.7325 54.4946 22.7325C53.6027 22.7325 52.7108 23.0716 52.0302 23.7522C50.669 25.1133 50.669 27.3199 52.0302 28.6787L62.3572 39.0058C63.8089 40.4575 63.8089 42.8104 62.3572 44.2622L52.8269 53.7925C52.6457 53.9737 52.3507 53.9737 52.1695 53.7925L45.7378 47.3282C44.9899 46.5756 44.005 46.1994 43.0202 46.1994C42.0353 46.1994 41.0412 46.5803 40.2886 47.3422C38.802 48.8496 38.8787 51.3025 40.3722 52.803H40.3745Z" fill="url(#paint0_linear_850_2090)"/>
<defs>
<linearGradient id="paint0_linear_850_2090" x1="19.7368" y1="28.9714" x2="64.8774" y2="55.0328" gradientUnits="userSpaceOnUse">
<stop stop-color="#29C1FC"/>
<stop offset="0.25" stop-color="#587BFD"/>
<stop offset="0.5" stop-color="#AB00FF"/>
<stop offset="0.75" stop-color="#D86292"/>
<stop offset="1" stop-color="#FBB03B"/>
</linearGradient>
</defs>
</svg>
