<svg width="22" height="21" viewBox="0 0 22 21" fill="none" xmlns="http://www.w3.org/2000/svg">
<path d="M18.4143 4.81251H16.151V2.88543C16.1521 2.33317 15.9704 1.79293 15.6288 1.33257C15.2871 0.872212 14.8007 0.51226 14.2307 0.297927C13.8522 0.156607 13.4462 0.0836734 13.036 0.0833435H3.64432C3.23372 0.0847089 2.82744 0.15827 2.44868 0.299828C2.06992 0.441385 1.7261 0.648166 1.43684 0.908364C1.14759 1.16856 0.918565 1.47708 0.762852 1.81631C0.607138 2.15553 0.527784 2.51882 0.529319 2.88543V13.3958C0.527784 13.7625 0.607138 14.1257 0.762852 14.465C0.918565 14.8042 1.14759 15.1127 1.43684 15.3729C1.7261 15.6331 2.06992 15.8399 2.44868 15.9814C2.82744 16.123 3.23372 16.1966 3.64432 16.1979H5.90765V18.125C5.90765 18.8636 6.23546 19.5721 6.8193 20.0953C7.40315 20.6186 8.19543 20.9139 9.02265 20.9167H18.356C19.1832 20.9139 19.9755 20.6186 20.5593 20.0953C21.1432 19.5721 21.471 18.8636 21.471 18.125V7.61459C21.4713 6.8839 21.1519 6.18201 20.5808 5.65856C20.0098 5.13512 19.2324 4.83152 18.4143 4.81251ZM5.90765 7.61459V14.6354H3.64432C3.46353 14.6341 3.28481 14.6009 3.11837 14.5379C2.95193 14.4749 2.80102 14.3832 2.67427 14.2681C2.54752 14.153 2.4474 14.0167 2.37963 13.867C2.31187 13.7174 2.27778 13.5573 2.27932 13.3958V2.88543C2.27778 2.72401 2.31187 2.5639 2.37963 2.41425C2.4474 2.26459 2.54752 2.12832 2.67427 2.01321C2.80102 1.8981 2.95193 1.80642 3.11837 1.74338C3.28481 1.68035 3.46353 1.64721 3.64432 1.64584H13.036C13.2168 1.64721 13.3955 1.68035 13.5619 1.74338C13.7284 1.80642 13.8793 1.8981 14.006 2.01321C14.1328 2.12832 14.2329 2.26459 14.3007 2.41425C14.3684 2.5639 14.4025 2.72401 14.401 2.88543V4.81251H9.02265C8.19436 4.81801 7.4021 5.11565 6.81858 5.64055C6.23507 6.16545 5.90763 6.87503 5.90765 7.61459Z" fill="white"/>
</svg>
