<svg width="24" height="24" viewBox="0 0 24 24" fill="none" xmlns="http://www.w3.org/2000/svg">
<path d="M20.6478 2.67419L13.1525 8.24105L14.5385 4.95668L20.6478 2.67419Z" fill="#E2761B" stroke="#E2761B" stroke-width="0.0640302" stroke-linecap="round" stroke-linejoin="round"/>
<path d="M3.34467 2.67419L10.7797 8.29378L9.46143 4.95668L3.34467 2.67419ZM17.9511 15.5781L15.9548 18.6365L20.226 19.8117L21.4539 15.6459L17.9511 15.5781ZM2.55371 15.6459L3.77405 19.8117L8.04524 18.6365L6.049 15.5781L2.55371 15.6459Z" fill="#E4761B" stroke="#E4761B" stroke-width="0.0640302" stroke-linecap="round" stroke-linejoin="round"/>
<path d="M7.80422 10.4107L6.61401 12.211L10.8551 12.3994L10.7044 7.84192L7.80422 10.4107ZM16.1884 10.4107L13.2505 7.78918L13.1526 12.3994L17.3861 12.211L16.1884 10.4107ZM8.04528 18.6366L10.5914 17.3937L8.39179 15.6762L8.04528 18.6366ZM13.4012 17.3937L15.9549 18.6366L15.6008 15.6762L13.4012 17.3937Z" fill="#E4761B" stroke="#E4761B" stroke-width="0.0640302" stroke-linecap="round" stroke-linejoin="round"/>
<path d="M15.9549 18.6365L13.4012 17.3936L13.6046 19.0583L13.582 19.7589L15.9549 18.6365ZM8.04529 18.6365L10.4182 19.7589L10.4031 19.0583L10.5914 17.3936L8.04529 18.6365Z" fill="#D7C1B3" stroke="#D7C1B3" stroke-width="0.0640302" stroke-linecap="round" stroke-linejoin="round"/>
<path d="M10.4558 14.5764L8.33154 13.9511L9.8306 13.2656L10.4558 14.5764ZM13.5368 14.5764L14.1621 13.2656L15.6686 13.9511L13.5368 14.5764Z" fill="#233447" stroke="#233447" stroke-width="0.0640302" stroke-linecap="round" stroke-linejoin="round"/>
<path d="M8.04518 18.6365L8.40677 15.5782L6.04895 15.646L8.04518 18.6365ZM15.5932 15.5782L15.9548 18.6365L17.951 15.646L15.5932 15.5782ZM17.3861 12.2109L13.1525 12.3993L13.5442 14.5763L14.1695 13.2656L15.6761 13.951L17.3861 12.2109ZM8.33144 13.951L9.83803 13.2656L10.4557 14.5763L10.855 12.3993L6.61392 12.2109L8.33144 13.951Z" fill="#CD6116" stroke="#CD6116" stroke-width="0.0640302" stroke-linecap="round" stroke-linejoin="round"/>
<path d="M6.61401 12.2109L8.39179 15.6761L8.33153 13.951L6.61401 12.2109ZM15.6762 13.951L15.6008 15.6761L17.3861 12.2109L15.6762 13.951ZM10.8551 12.3993L10.4558 14.5763L10.953 17.145L11.066 13.7627L10.8551 12.3993ZM13.1526 12.3993L12.9492 13.7552L13.0396 17.145L13.5443 14.5763L13.1526 12.3993Z" fill="#E4751F" stroke="#E4751F" stroke-width="0.0640302" stroke-linecap="round" stroke-linejoin="round"/>
<path d="M13.5443 14.5763L13.0396 17.145L13.4012 17.3936L15.6008 15.6761L15.6762 13.951L13.5443 14.5763ZM8.33154 13.951L8.39181 15.6761L10.5914 17.3936L10.953 17.145L10.4558 14.5763L8.33154 13.951Z" fill="#F6851B" stroke="#F6851B" stroke-width="0.0640302" stroke-linecap="round" stroke-linejoin="round"/>
<path d="M13.582 19.7589L13.6046 19.0583L13.4163 18.8926H10.5764L10.4031 19.0583L10.4182 19.7589L8.04529 18.6365L8.87391 19.3144L10.5538 20.482H13.4389L15.1263 19.3144L15.9549 18.6365L13.582 19.7589Z" fill="#C0AD9E" stroke="#C0AD9E" stroke-width="0.0640302" stroke-linecap="round" stroke-linejoin="round"/>
<path d="M13.4011 17.3936L13.0395 17.145H10.9529L10.5913 17.3936L10.403 19.0584L10.5762 18.8927H13.4161L13.6045 19.0584L13.4011 17.3936Z" fill="#161616" stroke="#161616" stroke-width="0.0640302" stroke-linecap="round" stroke-linejoin="round"/>
<path d="M20.9642 8.60263L21.6045 5.52919L20.6479 2.67419L13.4012 8.05273L16.1884 10.4105L20.1281 11.5631L21.0019 10.5461L20.6253 10.2749L21.2279 9.72504L20.7609 9.36346L21.3635 8.90395L20.9642 8.60263ZM2.39551 5.52919L3.03581 8.60263L2.62903 8.90395L3.23167 9.36346L2.77216 9.72504L3.37479 10.2749L2.99814 10.5461L3.86443 11.5631L7.80417 10.4105L10.5914 8.05273L3.34466 2.67419L2.39551 5.52919Z" fill="#763D16" stroke="#763D16" stroke-width="0.0640302" stroke-linecap="round" stroke-linejoin="round"/>
<path d="M20.1281 11.5632L16.1884 10.4106L17.3861 12.211L15.6008 15.6762L17.9511 15.6461H21.4539L20.1281 11.5632ZM7.80418 10.4106L3.86445 11.5632L2.55371 15.6461H6.049L8.39175 15.6762L6.61398 12.211L7.80418 10.4106ZM13.1526 12.3993L13.4012 8.05283L14.5462 4.95679H9.46143L10.5914 8.05283L10.855 12.3993L10.9454 13.7703L10.953 17.1451H13.0396L13.0547 13.7703L13.1526 12.3993Z" fill="#F6851B" stroke="#F6851B" stroke-width="0.0640302" stroke-linecap="round" stroke-linejoin="round"/>
</svg>
